<?xml version="1.0" encoding="utf-8"?>
<!-- Generator: Adobe Illustrator 21.0.0, SVG Export Plug-In . SVG Version: 6.00 Build 0)  -->
<svg version="1.1" id="Capa_20" xmlns="http://www.w3.org/2000/svg" xmlns:xlink="http://www.w3.org/1999/xlink" x="0px" y="0px"
	 viewBox="0 0 192 192" style="enable-background:new 0 0 192 192;" xml:space="preserve">
<style type="text/css">
	.st0{fill:#D32F2F;}
	.st1{fill:#F44336;}
	.st2{fill:#2196F3;}
	.st3{fill:#1565C0;}
	.st4{fill:#1976D2;}
</style>
<path class="st0" d="M68,12c0,0-40,108.2-48,128.4C34.8,164,52,172,52,172s12-33.8,16-47.4C54.3,112,56,96,56,96s0.6-38.5,40-40
	c40,2,40,40,40,40s0,18.6-12,28.6c15.6,15.6,33.1,34.4,33.1,34.4s8.2-7,14.9-19c-8-21.3-40-107-48-128C92,2.5,68,12,68,12z"/>
<g>
	<g>
		<path class="st1" d="M67.7,67.5c5.9-6.1,14.9-11,28.3-11.5c40,2,40,40,40,40s0,18.6-12,28.6c15.6,15.6,33.1,34.4,33.1,34.4
			s8.2-7,14.9-19c-8-21.3-40-107-48-128c-32-9.5-56,0-56,0s-6.7,18.2-15.2,41L67.7,67.5z"/>
	</g>
</g>
<path class="st2" d="M124,96c0,7.7-3.1,14.7-8.2,19.8C110.2,110.2,84,84,76.2,76.2C81.3,71.1,88.3,68,96,68
	C111.5,68,124,80.5,124,96z"/>
<g>
	<g>
		<path class="st3" d="M107.3,107.3c-2.9,2.9-6.9,4.7-11.3,4.7c-8.8,0-16-7.2-16-16c0-4.4,1.8-8.4,4.7-11.3L107.3,107.3z"/>
	</g>
</g>
<g>
	<g>
		<path class="st4" d="M84.7,84.7C87.6,81.8,91.6,80,96,80c8.8,0,16,7.2,16,16c0,4.4-1.8,8.4-4.7,11.3L84.7,84.7z"/>
	</g>
</g>
</svg>
